<?xml version="1.0" encoding="UTF-8" standalone="no"?>
<!-- Created with Inkscape (http://www.inkscape.org/) -->

<svg
   width="512"
   height="512"
   viewBox="0 0 135.46667 135.46667"
   version="1.1"
   id="svg1"
   xmlns:xlink="http://www.w3.org/1999/xlink"
   xmlns="http://www.w3.org/2000/svg"
   xmlns:svg="http://www.w3.org/2000/svg">
  <defs
     id="defs1">
    <linearGradient
       id="linearGradient1098">
      <stop
         style="stop-color:#be3764;stop-opacity:1;"
         offset="0"
         id="stop1099" />
      <stop
         style="stop-color:#252126;stop-opacity:0.94999999;"
         offset="0.38838327"
         id="stop1103" />
      <stop
         style="stop-color:#265a48;stop-opacity:1;"
         offset="1"
         id="stop1100" />
    </linearGradient>
    <rect
       x="128"
       y="128.00001"
       width="255.99999"
       height="255.99999"
       id="rect12" />
    <rect
       x="128"
       y="128.00001"
       width="255.99999"
       height="255.99999"
       id="rect11" />
    <linearGradient
       xlink:href="#linearGradient1098"
       id="linearGradient1100"
       x1="16.933317"
       y1="67.73333"
       x2="118.53338"
       y2="67.73333"
       gradientUnits="userSpaceOnUse"
       gradientTransform="matrix(0.96950465,0,0,0.96968075,2.0700062,2.053393)" />
  </defs>
  <g
     id="layer1"
     style="stroke-width:2.82575015;stroke-dasharray:none">
    <path
       id="r"
       style="font-size:226.667px;font-family:'Moirai One';-inkscape-font-specification:'Moirai One';text-align:center;text-anchor:middle;white-space:pre;fill:url(#linearGradient1100);stroke-width:2.62847;stroke-dasharray:none"
       d="m 87.674237,16.948977 c -8.456918,0.155694 -16.723683,4.722759 -21.281763,11.861544 -3.353455,-4.940552 -8.588017,-8.831533 -14.58578,-9.701201 -3.546822,-0.556446 -7.144006,-0.152492 -10.714505,-0.291189 -3.526863,-0.02621 -7.173139,0.05726 -10.453891,1.510862 -6.480959,2.681977 -11.585467,8.608949 -13.117385,15.472231 -0.903183,4.115525 -0.470489,8.352616 -0.562825,12.527908 0.03399,16.783655 -0.06436,33.568844 0.09076,50.351454 0.60176,8.581674 6.782735,16.625574 15.130754,18.971284 4.534089,1.31688 9.30095,0.7263 13.950978,0.86768 3.690297,0.0394 7.513199,-0.15961 10.893193,-1.79333 5.980288,-2.6649 10.45595,-8.28374 11.952332,-14.63344 0.562708,-2.319601 0.856924,-4.774177 0.411987,-7.135637 -0.857727,-2.75986 -4.605937,-4.047043 -6.951273,-2.327613 -1.57553,1.021449 -2.285214,3.002012 -2.075116,4.820433 -0.184111,4.873847 -3.446978,9.608367 -8.140661,11.137627 -1.296314,0.42739 -2.980098,0.58225 -4.467666,0.53791 -3.682347,0.0202 -7.372087,0.0901 -11.049646,-0.0883 -3.950839,-0.37358 -7.473508,-3.03165 -9.181888,-6.57316 -1.091932,-2.08422 -1.384171,-4.46766 -1.303497,-6.791631 -0.02797,-12.693388 -0.02607,-25.387263 -0.01672,-38.080853 0.0207,-6.118945 -7.72e-4,-12.241801 0.105332,-18.358064 0.5955,-5.00133 4.548962,-9.71312 9.601033,-10.777062 2.934883,-0.517036 5.934788,-0.135163 8.920555,-0.260299 3.021412,0.02051 6.267148,-0.25573 8.979862,1.348715 3.830554,2.031264 6.571212,6.152794 6.569107,10.541055 0.145267,2.88183 -0.327871,5.828244 0.368351,8.659962 1.025695,2.789995 4.979526,3.647393 7.213928,1.798678 1.309285,-1.034573 1.741311,-2.77208 1.692487,-4.373281 0.127761,-6.966144 3.992754,-13.871471 10.050709,-17.457179 2.470832,-1.511292 5.446399,-2.272149 8.215517,-2.386404 4.42391,-0.179372 9.064258,0.701039 12.849994,3.162076 3.78694,2.355885 6.43735,6.276203 7.59293,10.549816 0.50826,1.852999 0.80976,3.951058 0.88894,5.943422 0.13231,3.45952 -0.18773,6.844877 -1.22032,10.128279 -1.01372,3.22197 -2.81754,6.5652 -5.49654,8.850747 -4.16346,3.539868 -10.134502,4.699084 -15.350594,3.124656 -2.156318,-0.529389 -4.092012,-1.645216 -6.149408,-2.430108 -2.456397,-0.823676 -5.110623,1.090079 -5.750753,3.463956 -0.579772,1.797513 0.304346,3.769403 1.817821,4.806739 1.589424,1.078831 3.401942,1.779249 5.16943,2.509427 8.698185,3.226794 19.063364,1.54384 26.237224,-4.358528 2.85158,-2.312224 5.01753,-5.365828 6.5492,-8.683661 3.89115,-8.170243 4.44515,-17.765701 2.01807,-26.440566 -2.50452,-8.445044 -9.19857,-15.594117 -17.601461,-18.353399 -3.785801,-1.286115 -7.811976,-1.763037 -11.798803,-1.651487 z" />
  </g>
</svg>
